# Blender 3.5.1
# www.blender.org
mtllib chestnut.mtl
o Chestnut
v -0.055251 0.000000 0.232086
v 0.211937 0.000000 0.232086
v 0.211937 -0.000000 -0.056267
v -0.055251 -0.000000 -0.000666
v 0.211937 -0.000000 -0.000666
v 0.001785 0.000000 0.232086
v 0.001785 -0.000000 -0.056267
v 0.001785 -0.000000 -0.000666
vn -0.0000 1.0000 -0.0000
vt 0.058297 0.925482
vt 0.057196 0.123909
vt 0.936345 0.122701
vt 0.767929 0.924507
vt 0.766828 0.122934
vt 0.058062 0.754371
vt 0.937212 0.753163
vt 0.767694 0.753396
s 0
usemtl Material.012
f 8/8/1 4/4/1 1/1/1 6/6/1
f 3/3/1 7/7/1 8/8/1 5/5/1
f 5/5/1 8/8/1 6/6/1 2/2/1
